<?xml version="1.0" encoding="utf-8"?>
<!-- Generator: Adobe Illustrator 26.2.1, SVG Export Plug-In . SVG Version: 6.00 Build 0)  -->
<svg version="1.1" id="Layer_1" xmlns="http://www.w3.org/2000/svg" xmlns:xlink="http://www.w3.org/1999/xlink" x="0px" y="0px"
	 viewBox="0 0 45 45" style="enable-background:new 0 0 45 45;" xml:space="preserve">
<style type="text/css">
	.st0{fill:#79C843;}
</style>
<path class="st0" d="M40.1,0H4.8C2.2,0,0,2.2,0,4.8c0,0,0,0,0,0v35.3C0,42.8,2.1,45,4.8,45c0,0,0,0,0.1,0h13.8V29.7h-6.3v-7.2h6.3
	V17c0-6.2,3.7-9.7,9.4-9.7c1.9,0,3.7,0.2,5.6,0.5v6.1h-3.1c-3.1,0-4.1,1.9-4.1,3.9v4.7h6.9l-1.1,7.2h-5.8V45h13.8
	c2.7,0,4.8-2.1,4.9-4.8c0,0,0-0.1,0-0.1V4.8C45,2.2,42.8,0,40.1,0C40.2,0,40.1,0,40.1,0z"/>
</svg>
