<?xml version="1.0" encoding="utf-8"?>
<!-- Generator: Adobe Illustrator 26.2.1, SVG Export Plug-In . SVG Version: 6.00 Build 0)  -->
<svg version="1.1" id="Layer_1" xmlns="http://www.w3.org/2000/svg" xmlns:xlink="http://www.w3.org/1999/xlink" x="0px" y="0px"
	 viewBox="0 0 45 45" style="enable-background:new 0 0 45 45;" xml:space="preserve">
<style type="text/css">
	.st0{fill:#79C843;}
</style>
<path class="st0" d="M41.7,0H3.2C1.4,0,0,1.5,0,3.2c0,0,0,0,0,0v38.5C0,43.5,1.4,45,3.1,45c0,0,0,0,0.1,0h38.5
	c1.8,0,3.2-1.4,3.3-3.2c0,0,0-0.1,0-0.1V3.2C45,1.5,43.6,0,41.7,0C41.8,0,41.8,0,41.7,0z M13.6,38.5H6.9V17.1h6.7L13.6,38.5
	L13.6,38.5z M10.2,14.1c-2.1,0-3.9-1.7-3.9-3.9s1.7-3.9,3.9-3.9s3.9,1.7,3.9,3.9l0,0C14.1,12.4,12.4,14.1,10.2,14.1z M38.6,38.5
	h-6.7V28.1c0-2.5,0-5.7-3.5-5.7s-4,2.7-4,5.5v10.6h-6.7V17.1h6.4V20h0.1c1.3-2.2,3.7-3.6,6.3-3.5c6.7,0,8,4.4,8,10.2L38.6,38.5z"/>
</svg>
