<?xml version="1.0" encoding="utf-8"?>
<!-- Generator: Adobe Illustrator 26.2.1, SVG Export Plug-In . SVG Version: 6.00 Build 0)  -->
<svg version="1.1" xmlns="http://www.w3.org/2000/svg" xmlns:xlink="http://www.w3.org/1999/xlink" x="0px" y="0px"
	 viewBox="0 0 298.9 31.2" style="enable-background:new 0 0 298.9 31.2;" xml:space="preserve">
<style type="text/css">
	.st0{fill:#FFFFFF;}
	.st1{fill:#7AC943;}
	.st2{display:none;}
	.st3{display:inline;}
	.st4{fill:#333333;}
</style>
<g id="Layer_1_copy">
	<g>
		<g>
			<path class="st0" d="M73.5,17.2c0.7,0.9,1,1.9,1,3.1c0,1.7-0.6,3-1.8,4c-1.2,1-2.8,1.4-4.9,1.4h-9.9v-20h9.6c2,0,3.6,0.5,4.8,1.4
				C73.5,8,74,9.3,74,11c0,1.2-0.3,2.1-0.9,2.9s-1.4,1.3-2.5,1.6C71.8,15.8,72.8,16.3,73.5,17.2z M63.5,13.7h2.8
				c1.4,0,2.1-0.6,2.1-1.7c0-1.2-0.7-1.8-2.1-1.8h-2.8V13.7z M68.8,19.5c0-0.6-0.2-1.1-0.6-1.4c-0.4-0.3-0.9-0.5-1.6-0.5h-3.2v3.6
				h3.2C68.1,21.3,68.8,20.7,68.8,19.5z"/>
			<path class="st0" d="M81,24.6c-1.6-0.9-2.8-2.1-3.7-3.7c-0.9-1.6-1.4-3.3-1.4-5.3c0-2,0.5-3.7,1.4-5.3c0.9-1.6,2.2-2.8,3.7-3.6
				c1.6-0.9,3.3-1.3,5.2-1.3c1.9,0,3.6,0.4,5.2,1.3c1.6,0.9,2.8,2.1,3.7,3.6s1.4,3.3,1.4,5.3c0,2-0.5,3.7-1.4,5.3s-2.1,2.8-3.7,3.7
				S88,26,86.1,26C84.2,26,82.5,25.5,81,24.6z M89.5,19.4c0.8-0.9,1.2-2.2,1.2-3.7c0-1.6-0.4-2.8-1.2-3.8c-0.8-0.9-1.9-1.4-3.4-1.4
				c-1.4,0-2.6,0.5-3.4,1.4c-0.8,0.9-1.2,2.2-1.2,3.8c0,1.6,0.4,2.8,1.2,3.7c0.8,0.9,1.9,1.4,3.4,1.4C87.5,20.8,88.7,20.3,89.5,19.4
				z"/>
			<path class="st0" d="M117.2,25.8h-5.6l-7.4-11.2v11.2h-5.6v-20h5.6l7.4,11.3V5.8h5.6V25.8z"/>
			<path class="st0" d="M126,10.2v3.3h6.4v4.2H126v3.6h7.2v4.5h-12.8v-20h12.8v4.5H126z"/>
			<path class="st0" d="M137.7,24.3c-1.5-1.1-2.3-2.7-2.4-4.7h5.9c0.1,0.7,0.3,1.2,0.6,1.5c0.4,0.3,0.8,0.5,1.4,0.5
				c0.5,0,0.9-0.1,1.3-0.4c0.3-0.3,0.5-0.6,0.5-1.1c0-0.6-0.3-1-0.8-1.4s-1.4-0.7-2.7-1.1c-1.3-0.4-2.4-0.9-3.2-1.3
				c-0.8-0.4-1.5-1-2.1-1.8c-0.6-0.8-0.9-1.8-0.9-3.1c0-1.3,0.3-2.4,1-3.3c0.6-0.9,1.5-1.6,2.7-2.1c1.1-0.5,2.4-0.7,3.9-0.7
				c2.3,0,4.2,0.5,5.6,1.6c1.4,1.1,2.1,2.6,2.2,4.6h-6c0-0.6-0.2-1.1-0.6-1.4c-0.4-0.3-0.8-0.5-1.3-0.5c-0.4,0-0.8,0.1-1,0.4
				s-0.4,0.6-0.4,1c0,0.4,0.1,0.7,0.4,1c0.3,0.3,0.7,0.5,1.1,0.7c0.4,0.2,1.1,0.4,1.9,0.8c1.3,0.4,2.3,0.9,3.1,1.3
				c0.8,0.4,1.5,1,2.1,1.8c0.6,0.8,0.9,1.7,0.9,2.9c0,1.2-0.3,2.3-0.9,3.2c-0.6,0.9-1.5,1.7-2.6,2.2c-1.1,0.5-2.5,0.8-4,0.8
				C141.1,26,139.2,25.4,137.7,24.3z"/>
			<path class="st0" d="M160.1,6.3c1.2-1.1,3-1.7,5.2-1.7c1.5,0,2.7,0.3,3.7,0.8c1,0.5,1.8,1.2,2.3,2c0.5,0.9,0.8,1.8,0.8,2.9
				c0,1.3-0.3,2.3-0.9,3.1c-0.6,0.8-1.3,1.3-2.1,1.5V15c2.3,0.9,3.4,2.5,3.4,4.9c0,1.2-0.3,2.2-0.8,3.1s-1.3,1.6-2.4,2.1
				c-1,0.5-2.3,0.8-3.7,0.8c-2.4,0-4.2-0.6-5.6-1.7c-1.4-1.1-2.1-2.9-2.1-5.3h5.4c0,0.8,0.1,1.3,0.5,1.8c0.4,0.4,0.9,0.6,1.6,0.6
				c0.5,0,1-0.2,1.3-0.5c0.3-0.3,0.5-0.8,0.5-1.4c0-0.7-0.2-1.2-0.7-1.6c-0.5-0.3-1.2-0.5-2.3-0.5h-1v-4.5h1c0.7,0,1.3-0.1,1.8-0.4
				c0.5-0.3,0.8-0.8,0.8-1.5c0-0.6-0.1-1-0.4-1.3s-0.7-0.4-1.2-0.4c-0.5,0-0.9,0.2-1.2,0.6c-0.3,0.4-0.4,0.9-0.4,1.4h-5.4
				C158.2,9.1,158.8,7.4,160.1,6.3z"/>
			<path class="st0" d="M175.7,25.2c-0.6-0.5-0.9-1.2-0.9-2.1c0-0.8,0.3-1.5,0.9-2.1c0.6-0.5,1.4-0.8,2.4-0.8c1,0,1.7,0.3,2.3,0.8
				c0.6,0.5,0.9,1.2,0.9,2.1c0,0.8-0.3,1.5-0.9,2c-0.6,0.5-1.4,0.8-2.3,0.8C177.1,26,176.3,25.7,175.7,25.2z"/>
			<path class="st0" d="M184.7,7.4c1.3-1.9,3.4-2.8,6.2-2.8c2.8,0,4.9,0.9,6.2,2.8c1.3,1.9,2,4.4,2,7.7c0,3.3-0.7,5.9-2,7.7
				c-1.3,1.9-3.4,2.8-6.3,2.8s-4.9-0.9-6.3-2.8c-1.3-1.9-2-4.5-2-7.7C182.7,11.9,183.4,9.3,184.7,7.4z M193.2,11.2
				c-0.4-0.9-1.1-1.3-2.2-1.3c-1.1,0-1.9,0.4-2.2,1.3c-0.4,0.9-0.5,2.2-0.5,3.9c0,1.7,0.2,3.1,0.5,4c0.3,0.9,1.1,1.3,2.2,1.3
				s1.9-0.4,2.2-1.3c0.3-0.9,0.5-2.2,0.5-4C193.7,13.4,193.5,12.1,193.2,11.2z"/>
			<path class="st0" d="M210.1,25.3c-1-0.5-1.8-1.1-2.4-1.9c-0.6-0.8-0.9-1.8-0.9-2.8h2.7c0.1,0.9,0.5,1.7,1.1,2.3
				c0.7,0.6,1.6,0.9,2.9,0.9c1.2,0,2.2-0.3,2.9-0.9c0.7-0.6,1.1-1.4,1.1-2.4c0-0.8-0.2-1.4-0.6-1.8s-0.9-0.8-1.6-1.1
				c-0.6-0.2-1.5-0.5-2.5-0.8c-1.3-0.3-2.3-0.7-3.1-1s-1.5-0.9-2-1.6c-0.6-0.7-0.8-1.7-0.8-2.9c0-1.1,0.3-2,0.8-2.9
				c0.5-0.8,1.3-1.5,2.3-1.9c1-0.5,2.1-0.7,3.4-0.7c1.9,0,3.4,0.5,4.5,1.4c1.2,0.9,1.8,2.2,2,3.7h-2.8c-0.1-0.8-0.5-1.4-1.2-2
				c-0.7-0.6-1.6-0.9-2.8-0.9c-1.1,0-2,0.3-2.6,0.8c-0.7,0.6-1,1.3-1,2.3c0,0.7,0.2,1.3,0.6,1.8s0.9,0.8,1.5,1
				c0.6,0.2,1.4,0.5,2.5,0.8c1.3,0.4,2.4,0.7,3.1,1.1c0.8,0.4,1.5,0.9,2,1.6c0.6,0.7,0.9,1.7,0.9,3c0,1-0.3,1.9-0.8,2.7
				c-0.5,0.9-1.3,1.5-2.3,2.1c-1,0.5-2.2,0.8-3.5,0.8C212.3,26,211.1,25.7,210.1,25.3z"/>
			<path class="st0" d="M226.1,25c-1.2-0.7-2.1-1.6-2.8-2.8c-0.7-1.2-1-2.6-1-4.2c0-1.6,0.3-3,1-4.2c0.7-1.2,1.6-2.2,2.8-2.8
				s2.5-1,4-1c1.5,0,2.8,0.3,4,1s2.1,1.6,2.8,2.8c0.7,1.2,1,2.6,1,4.2c0,1.6-0.4,3-1.1,4.2c-0.7,1.2-1.7,2.2-2.9,2.8s-2.6,1-4,1
				C228.6,26,227.3,25.7,226.1,25z M232.7,23.1c0.8-0.4,1.5-1.1,2-2c0.5-0.9,0.8-1.9,0.8-3.2c0-1.2-0.2-2.3-0.7-3.2
				c-0.5-0.9-1.1-1.5-1.9-1.9c-0.8-0.4-1.7-0.6-2.6-0.6c-0.9,0-1.8,0.2-2.6,0.6c-0.8,0.4-1.4,1.1-1.9,1.9c-0.5,0.9-0.7,1.9-0.7,3.2
				c0,1.3,0.2,2.3,0.7,3.2c0.5,0.9,1.1,1.5,1.9,1.9c0.8,0.4,1.6,0.6,2.6,0.6S231.9,23.5,232.7,23.1z"/>
			<path class="st0" d="M254.7,10.2v15.5h-2.6v-2.3c-0.5,0.8-1.2,1.4-2.1,1.9c-0.9,0.4-1.8,0.7-2.9,0.7c-1.2,0-2.3-0.2-3.3-0.8
				c-1-0.5-1.7-1.3-2.3-2.3c-0.6-1-0.8-2.2-0.8-3.7v-9.1h2.6V19c0,1.5,0.4,2.7,1.2,3.5c0.8,0.8,1.8,1.2,3.2,1.2
				c1.4,0,2.5-0.4,3.3-1.3c0.8-0.9,1.2-2.1,1.2-3.7v-8.5H254.7z"/>
			<path class="st0" d="M263,10.7c0.8-0.5,1.9-0.7,3.1-0.7v2.7h-0.7c-2.9,0-4.3,1.6-4.3,4.7v8.4h-2.6V10.2h2.6v2.5
				C261.5,11.9,262.2,11.2,263,10.7z"/>
			<path class="st0" d="M268.1,13.8c0.6-1.2,1.5-2.1,2.7-2.8c1.1-0.7,2.5-1,3.9-1c1.9,0,3.5,0.5,4.7,1.4c1.2,0.9,2.1,2.2,2.5,3.9
				h-2.8c-0.3-0.9-0.8-1.7-1.5-2.2c-0.8-0.5-1.7-0.8-2.8-0.8c-1.5,0-2.7,0.5-3.6,1.5c-0.9,1-1.4,2.4-1.4,4.3c0,1.9,0.5,3.3,1.4,4.3
				c0.9,1,2.1,1.5,3.6,1.5c1.1,0,2.1-0.3,2.8-0.8c0.8-0.5,1.3-1.3,1.6-2.3h2.8c-0.4,1.6-1.2,2.9-2.5,3.8c-1.2,1-2.8,1.4-4.7,1.4
				c-1.5,0-2.8-0.3-3.9-1s-2-1.6-2.7-2.8c-0.6-1.2-1-2.6-1-4.3C267.2,16.4,267.5,15,268.1,13.8z"/>
			<path class="st0" d="M298.8,19h-12.4c0.1,1.5,0.6,2.7,1.6,3.6c1,0.9,2.1,1.3,3.5,1.3c1.1,0,2-0.3,2.8-0.8
				c0.7-0.5,1.3-1.2,1.6-2.1h2.8c-0.4,1.5-1.2,2.7-2.5,3.6s-2.8,1.4-4.6,1.4c-1.5,0-2.8-0.3-4-1s-2.1-1.6-2.7-2.8
				c-0.7-1.2-1-2.6-1-4.2c0-1.6,0.3-3,1-4.2c0.6-1.2,1.5-2.1,2.7-2.8s2.5-1,4-1c1.5,0,2.8,0.3,3.9,1c1.1,0.6,2,1.5,2.6,2.7
				c0.6,1.1,0.9,2.4,0.9,3.8C298.9,17.9,298.9,18.4,298.8,19z M295.6,14.3c-0.4-0.7-1-1.2-1.8-1.6c-0.7-0.4-1.6-0.6-2.5-0.6
				c-1.3,0-2.4,0.4-3.3,1.2c-0.9,0.8-1.4,2-1.6,3.5h9.8C296.3,15.9,296,15,295.6,14.3z"/>
		</g>
		<path class="st1" d="M23.4,31.2H4.9C2.2,31.2,0,29,0,26.3V4.9C0,2.2,2.2,0,4.9,0h18.5V31.2z"/>
		<g>
			<path class="st1" d="M41.9,1.6c1.8,0,3.3,1.5,3.3,3.3v21.4c0,1.8-1.5,3.3-3.3,3.3H13.3v-28H41.9 M41.9,0H11.7v31.2h30.2
				c2.7,0,4.9-2.2,4.9-4.9V4.9C46.8,2.2,44.7,0,41.9,0L41.9,0z"/>
		</g>
		<g>
			<path class="st0" d="M19.7,17.3c0.7,0.9,1,1.9,1,3.1c0,1.7-0.6,3.1-1.8,4c-1.2,1-2.8,1.5-5,1.5H4V5.7h9.7c2.1,0,3.7,0.5,4.9,1.4
				c1.2,0.9,1.8,2.2,1.8,3.9c0,1.2-0.3,2.2-0.9,3c-0.6,0.8-1.4,1.3-2.5,1.6C18.1,15.8,19,16.4,19.7,17.3z M9.6,13.7h2.8
				c1.4,0,2.1-0.6,2.1-1.8c0-1.2-0.7-1.8-2.1-1.8H9.6V13.7z M15,19.6c0-0.6-0.2-1.1-0.6-1.4s-0.9-0.5-1.6-0.5H9.6v3.7h3.3
				C14.3,21.4,15,20.8,15,19.6z"/>
		</g>
		<g>
			<path class="st1" d="M29.1,6.4c1.3-1.2,3-1.7,5.3-1.7c1.5,0,2.7,0.3,3.8,0.8c1,0.5,1.8,1.2,2.4,2.1c0.5,0.9,0.8,1.9,0.8,2.9
				c0,1.3-0.3,2.3-0.9,3.1s-1.3,1.3-2.2,1.6v0.1c2.3,0.9,3.5,2.5,3.5,4.9c0,1.2-0.3,2.3-0.8,3.2s-1.4,1.6-2.4,2.2
				c-1.1,0.5-2.3,0.8-3.8,0.8c-2.4,0-4.3-0.6-5.7-1.7c-1.4-1.2-2.1-2.9-2.2-5.3h5.5c0,0.8,0.1,1.4,0.5,1.8c0.4,0.4,0.9,0.6,1.6,0.6
				c0.6,0,1-0.2,1.3-0.5s0.5-0.8,0.5-1.4c0-0.7-0.2-1.3-0.7-1.6s-1.2-0.5-2.3-0.5h-1v-4.6h1c0.7,0,1.3-0.1,1.9-0.4
				c0.5-0.3,0.8-0.8,0.8-1.6c0-0.6-0.1-1-0.4-1.3s-0.7-0.4-1.2-0.4c-0.6,0-1,0.2-1.2,0.6c-0.3,0.4-0.4,0.9-0.4,1.4h-5.5
				C27.2,9.3,27.8,7.6,29.1,6.4z"/>
		</g>
	</g>
</g>
<g id="Layer_1_copy_2" class="st2">
	<g class="st3">
		<g>
			<path class="st4" d="M73.5,17.2c0.7,0.9,1,1.9,1,3.1c0,1.7-0.6,3-1.8,4c-1.2,1-2.8,1.4-4.9,1.4h-9.9v-20h9.6c2,0,3.6,0.5,4.8,1.4
				C73.5,8,74,9.3,74,11c0,1.2-0.3,2.1-0.9,2.9s-1.4,1.3-2.5,1.6C71.8,15.8,72.8,16.3,73.5,17.2z M63.5,13.7h2.8
				c1.4,0,2.1-0.6,2.1-1.7c0-1.2-0.7-1.8-2.1-1.8h-2.8V13.7z M68.8,19.5c0-0.6-0.2-1.1-0.6-1.4c-0.4-0.3-0.9-0.5-1.6-0.5h-3.2v3.6
				h3.2C68.1,21.3,68.8,20.7,68.8,19.5z"/>
			<path class="st4" d="M81,24.6c-1.6-0.9-2.8-2.1-3.7-3.7c-0.9-1.6-1.4-3.3-1.4-5.3c0-2,0.5-3.7,1.4-5.3c0.9-1.6,2.2-2.8,3.7-3.6
				c1.6-0.9,3.3-1.3,5.2-1.3c1.9,0,3.6,0.4,5.2,1.3c1.6,0.9,2.8,2.1,3.7,3.6s1.4,3.3,1.4,5.3c0,2-0.5,3.7-1.4,5.3s-2.1,2.8-3.7,3.7
				S88,26,86.1,26C84.2,26,82.5,25.5,81,24.6z M89.5,19.4c0.8-0.9,1.2-2.2,1.2-3.7c0-1.6-0.4-2.8-1.2-3.8c-0.8-0.9-1.9-1.4-3.4-1.4
				c-1.4,0-2.6,0.5-3.4,1.4c-0.8,0.9-1.2,2.2-1.2,3.8c0,1.6,0.4,2.8,1.2,3.7c0.8,0.9,1.9,1.4,3.4,1.4C87.5,20.8,88.7,20.3,89.5,19.4
				z"/>
			<path class="st4" d="M117.2,25.8h-5.6l-7.4-11.2v11.2h-5.6v-20h5.6l7.4,11.3V5.8h5.6V25.8z"/>
			<path class="st4" d="M126,10.2v3.3h6.4v4.2H126v3.6h7.2v4.5h-12.8v-20h12.8v4.5H126z"/>
			<path class="st4" d="M137.7,24.3c-1.5-1.1-2.3-2.7-2.4-4.7h5.9c0.1,0.7,0.3,1.2,0.6,1.5c0.4,0.3,0.8,0.5,1.4,0.5
				c0.5,0,0.9-0.1,1.3-0.4c0.3-0.3,0.5-0.6,0.5-1.1c0-0.6-0.3-1-0.8-1.4s-1.4-0.7-2.7-1.1c-1.3-0.4-2.4-0.9-3.2-1.3
				c-0.8-0.4-1.5-1-2.1-1.8c-0.6-0.8-0.9-1.8-0.9-3.1c0-1.3,0.3-2.4,1-3.3c0.6-0.9,1.5-1.6,2.7-2.1c1.1-0.5,2.4-0.7,3.9-0.7
				c2.3,0,4.2,0.5,5.6,1.6c1.4,1.1,2.1,2.6,2.2,4.6h-6c0-0.6-0.2-1.1-0.6-1.4c-0.4-0.3-0.8-0.5-1.3-0.5c-0.4,0-0.8,0.1-1,0.4
				s-0.4,0.6-0.4,1c0,0.4,0.1,0.7,0.4,1c0.3,0.3,0.7,0.5,1.1,0.7c0.4,0.2,1.1,0.4,1.9,0.8c1.3,0.4,2.3,0.9,3.1,1.3
				c0.8,0.4,1.5,1,2.1,1.8c0.6,0.8,0.9,1.7,0.9,2.9c0,1.2-0.3,2.3-0.9,3.2c-0.6,0.9-1.5,1.7-2.6,2.2c-1.1,0.5-2.5,0.8-4,0.8
				C141.1,26,139.2,25.4,137.7,24.3z"/>
			<path class="st4" d="M160.1,6.3c1.2-1.1,3-1.7,5.2-1.7c1.5,0,2.7,0.3,3.7,0.8c1,0.5,1.8,1.2,2.3,2c0.5,0.9,0.8,1.8,0.8,2.9
				c0,1.3-0.3,2.3-0.9,3.1c-0.6,0.8-1.3,1.3-2.1,1.5V15c2.3,0.9,3.4,2.5,3.4,4.9c0,1.2-0.3,2.2-0.8,3.1s-1.3,1.6-2.4,2.1
				c-1,0.5-2.3,0.8-3.7,0.8c-2.4,0-4.2-0.6-5.6-1.7c-1.4-1.1-2.1-2.9-2.1-5.3h5.4c0,0.8,0.1,1.3,0.5,1.8c0.4,0.4,0.9,0.6,1.6,0.6
				c0.5,0,1-0.2,1.3-0.5c0.3-0.3,0.5-0.8,0.5-1.4c0-0.7-0.2-1.2-0.7-1.6c-0.5-0.3-1.2-0.5-2.3-0.5h-1v-4.5h1c0.7,0,1.3-0.1,1.8-0.4
				c0.5-0.3,0.8-0.8,0.8-1.5c0-0.6-0.1-1-0.4-1.3s-0.7-0.4-1.2-0.4c-0.5,0-0.9,0.2-1.2,0.6c-0.3,0.4-0.4,0.9-0.4,1.4h-5.4
				C158.2,9.1,158.8,7.4,160.1,6.3z"/>
			<path class="st4" d="M175.7,25.2c-0.6-0.5-0.9-1.2-0.9-2.1c0-0.8,0.3-1.5,0.9-2.1c0.6-0.5,1.4-0.8,2.4-0.8c1,0,1.7,0.3,2.3,0.8
				c0.6,0.5,0.9,1.2,0.9,2.1c0,0.8-0.3,1.5-0.9,2c-0.6,0.5-1.4,0.8-2.3,0.8C177.1,26,176.3,25.7,175.7,25.2z"/>
			<path class="st4" d="M184.7,7.4c1.3-1.9,3.4-2.8,6.2-2.8c2.8,0,4.9,0.9,6.2,2.8c1.3,1.9,2,4.4,2,7.7c0,3.3-0.7,5.9-2,7.7
				c-1.3,1.9-3.4,2.8-6.3,2.8s-4.9-0.9-6.3-2.8c-1.3-1.9-2-4.5-2-7.7C182.7,11.9,183.4,9.3,184.7,7.4z M193.2,11.2
				c-0.4-0.9-1.1-1.3-2.2-1.3c-1.1,0-1.9,0.4-2.2,1.3c-0.4,0.9-0.5,2.2-0.5,3.9c0,1.7,0.2,3.1,0.5,4c0.3,0.9,1.1,1.3,2.2,1.3
				s1.9-0.4,2.2-1.3c0.3-0.9,0.5-2.2,0.5-4C193.7,13.4,193.5,12.1,193.2,11.2z"/>
			<path class="st4" d="M210.1,25.3c-1-0.5-1.8-1.1-2.4-1.9c-0.6-0.8-0.9-1.8-0.9-2.8h2.7c0.1,0.9,0.5,1.7,1.1,2.3
				c0.7,0.6,1.6,0.9,2.9,0.9c1.2,0,2.2-0.3,2.9-0.9c0.7-0.6,1.1-1.4,1.1-2.4c0-0.8-0.2-1.4-0.6-1.8s-0.9-0.8-1.6-1.1
				c-0.6-0.2-1.5-0.5-2.5-0.8c-1.3-0.3-2.3-0.7-3.1-1s-1.5-0.9-2-1.6c-0.6-0.7-0.8-1.7-0.8-2.9c0-1.1,0.3-2,0.8-2.9
				c0.5-0.8,1.3-1.5,2.3-1.9c1-0.5,2.1-0.7,3.4-0.7c1.9,0,3.4,0.5,4.5,1.4c1.2,0.9,1.8,2.2,2,3.7h-2.8c-0.1-0.8-0.5-1.4-1.2-2
				c-0.7-0.6-1.6-0.9-2.8-0.9c-1.1,0-2,0.3-2.6,0.8c-0.7,0.6-1,1.3-1,2.3c0,0.7,0.2,1.3,0.6,1.8s0.9,0.8,1.5,1
				c0.6,0.2,1.4,0.5,2.5,0.8c1.3,0.4,2.4,0.7,3.1,1.1c0.8,0.4,1.5,0.9,2,1.6c0.6,0.7,0.9,1.7,0.9,3c0,1-0.3,1.9-0.8,2.7
				c-0.5,0.9-1.3,1.5-2.3,2.1c-1,0.5-2.2,0.8-3.5,0.8C212.3,26,211.1,25.7,210.1,25.3z"/>
			<path class="st4" d="M226.1,25c-1.2-0.7-2.1-1.6-2.8-2.8c-0.7-1.2-1-2.6-1-4.2c0-1.6,0.3-3,1-4.2c0.7-1.2,1.6-2.2,2.8-2.8
				s2.5-1,4-1c1.5,0,2.8,0.3,4,1s2.1,1.6,2.8,2.8c0.7,1.2,1,2.6,1,4.2c0,1.6-0.4,3-1.1,4.2c-0.7,1.2-1.7,2.2-2.9,2.8s-2.6,1-4,1
				C228.6,26,227.3,25.7,226.1,25z M232.7,23.1c0.8-0.4,1.5-1.1,2-2c0.5-0.9,0.8-1.9,0.8-3.2c0-1.2-0.2-2.3-0.7-3.2
				c-0.5-0.9-1.1-1.5-1.9-1.9c-0.8-0.4-1.7-0.6-2.6-0.6c-0.9,0-1.8,0.2-2.6,0.6c-0.8,0.4-1.4,1.1-1.9,1.9c-0.5,0.9-0.7,1.9-0.7,3.2
				c0,1.3,0.2,2.3,0.7,3.2c0.5,0.9,1.1,1.5,1.9,1.9c0.8,0.4,1.6,0.6,2.6,0.6S231.9,23.5,232.7,23.1z"/>
			<path class="st4" d="M254.7,10.2v15.5h-2.6v-2.3c-0.5,0.8-1.2,1.4-2.1,1.9c-0.9,0.4-1.8,0.7-2.9,0.7c-1.2,0-2.3-0.2-3.3-0.8
				c-1-0.5-1.7-1.3-2.3-2.3c-0.6-1-0.8-2.2-0.8-3.7v-9.1h2.6V19c0,1.5,0.4,2.7,1.2,3.5c0.8,0.8,1.8,1.2,3.2,1.2
				c1.4,0,2.5-0.4,3.3-1.3c0.8-0.9,1.2-2.1,1.2-3.7v-8.5H254.7z"/>
			<path class="st4" d="M263,10.7c0.8-0.5,1.9-0.7,3.1-0.7v2.7h-0.7c-2.9,0-4.3,1.6-4.3,4.7v8.4h-2.6V10.2h2.6v2.5
				C261.5,11.9,262.2,11.2,263,10.7z"/>
			<path class="st4" d="M268.1,13.8c0.6-1.2,1.5-2.1,2.7-2.8c1.1-0.7,2.5-1,3.9-1c1.9,0,3.5,0.5,4.7,1.4c1.2,0.9,2.1,2.2,2.5,3.9
				h-2.8c-0.3-0.9-0.8-1.7-1.5-2.2c-0.8-0.5-1.7-0.8-2.8-0.8c-1.5,0-2.7,0.5-3.6,1.5c-0.9,1-1.4,2.4-1.4,4.3c0,1.9,0.5,3.3,1.4,4.3
				c0.9,1,2.1,1.5,3.6,1.5c1.1,0,2.1-0.3,2.8-0.8c0.8-0.5,1.3-1.3,1.6-2.3h2.8c-0.4,1.6-1.2,2.9-2.5,3.8c-1.2,1-2.8,1.4-4.7,1.4
				c-1.5,0-2.8-0.3-3.9-1s-2-1.6-2.7-2.8c-0.6-1.2-1-2.6-1-4.3C267.2,16.4,267.5,15,268.1,13.8z"/>
			<path class="st4" d="M298.8,19h-12.4c0.1,1.5,0.6,2.7,1.6,3.6c1,0.9,2.1,1.3,3.5,1.3c1.1,0,2-0.3,2.8-0.8
				c0.7-0.5,1.3-1.2,1.6-2.1h2.8c-0.4,1.5-1.2,2.7-2.5,3.6s-2.8,1.4-4.6,1.4c-1.5,0-2.8-0.3-4-1s-2.1-1.6-2.7-2.8
				c-0.7-1.2-1-2.6-1-4.2c0-1.6,0.3-3,1-4.2c0.6-1.2,1.5-2.1,2.7-2.8s2.5-1,4-1c1.5,0,2.8,0.3,3.9,1c1.1,0.6,2,1.5,2.6,2.7
				c0.6,1.1,0.9,2.4,0.9,3.8C298.9,17.9,298.9,18.4,298.8,19z M295.6,14.3c-0.4-0.7-1-1.2-1.8-1.6c-0.7-0.4-1.6-0.6-2.5-0.6
				c-1.3,0-2.4,0.4-3.3,1.2c-0.9,0.8-1.4,2-1.6,3.5h9.8C296.3,15.9,296,15,295.6,14.3z"/>
		</g>
		<g>
			<path class="st1" d="M41.9,1.6c1.8,0,3.3,1.5,3.3,3.3v21.4c0,1.8-1.5,3.3-3.3,3.3h-35c-2.9,0-5.3-2.4-5.3-5.3V6.9
				C1.6,4,4,1.6,6.9,1.6H41.9 M41.9,0h-35C3.1,0,0,3.1,0,6.9v17.4c0,3.8,3.1,6.9,6.9,6.9h35c2.7,0,4.9-2.2,4.9-4.9V4.9
				C46.8,2.2,44.7,0,41.9,0L41.9,0z"/>
		</g>
		<g>
			<path class="st1" d="M12.8,17.7H9.6v3.7h3.3c1.4,0,2.1-0.6,2.1-1.8c0-0.6-0.2-1.1-0.6-1.4S13.5,17.7,12.8,17.7z"/>
			<path class="st1" d="M4.9,0C2.2,0,0,2.2,0,4.9v21.4c0,2.7,2.2,4.9,4.9,4.9h18.5V0H4.9z M19,24.4c-1.2,1-2.8,1.5-5,1.5H4V5.7h9.7
				c2.1,0,3.7,0.5,4.9,1.4c1.2,0.9,1.8,2.2,1.8,3.9c0,1.2-0.3,2.2-0.9,3c-0.6,0.8-1.4,1.3-2.5,1.6c1.2,0.3,2.1,0.9,2.8,1.8
				c0.7,0.9,1,1.9,1,3.1C20.7,22.1,20.1,23.5,19,24.4z"/>
			<path class="st1" d="M14.5,12c0-1.2-0.7-1.8-2.1-1.8H9.6v3.6h2.8C13.8,13.7,14.5,13.1,14.5,12z"/>
		</g>
		<g>
			<path class="st1" d="M29.1,6.4c1.3-1.2,3-1.7,5.3-1.7c1.5,0,2.7,0.3,3.8,0.8c1,0.5,1.8,1.2,2.4,2.1c0.5,0.9,0.8,1.9,0.8,2.9
				c0,1.3-0.3,2.3-0.9,3.1s-1.3,1.3-2.2,1.6v0.1c2.3,0.9,3.5,2.5,3.5,4.9c0,1.2-0.3,2.3-0.8,3.2s-1.4,1.6-2.4,2.2
				c-1.1,0.5-2.3,0.8-3.8,0.8c-2.4,0-4.3-0.6-5.7-1.7c-1.4-1.2-2.1-2.9-2.2-5.3h5.5c0,0.8,0.1,1.4,0.5,1.8c0.4,0.4,0.9,0.6,1.6,0.6
				c0.6,0,1-0.2,1.3-0.5s0.5-0.8,0.5-1.4c0-0.7-0.2-1.3-0.7-1.6s-1.2-0.5-2.3-0.5h-1v-4.6h1c0.7,0,1.3-0.1,1.9-0.4
				c0.5-0.3,0.8-0.8,0.8-1.6c0-0.6-0.1-1-0.4-1.3s-0.7-0.4-1.2-0.4c-0.6,0-1,0.2-1.2,0.6c-0.3,0.4-0.4,0.9-0.4,1.4h-5.5
				C27.2,9.3,27.8,7.6,29.1,6.4z"/>
		</g>
	</g>
</g>
</svg>
