<?xml version="1.0" encoding="utf-8"?>
<!-- Generator: Adobe Illustrator 26.2.1, SVG Export Plug-In . SVG Version: 6.00 Build 0)  -->
<svg version="1.1" id="Layer_5" xmlns="http://www.w3.org/2000/svg" xmlns:xlink="http://www.w3.org/1999/xlink" x="0px" y="0px"
	 viewBox="0 0 250 250" style="enable-background:new 0 0 250 250;" xml:space="preserve">
<style type="text/css">
	.st0{fill:#FFFFFF;}
</style>
<g>
	<path class="st0" d="M125,108.7c-8.9,0-16.2-7.3-16.2-16.2c0-8.9,7.3-16.2,16.2-16.2c8.9,0,16.2,7.3,16.2,16.2
		C141.2,101.4,133.9,108.7,125,108.7z M125,80.1c-6.8,0-12.4,5.6-12.4,12.4s5.6,12.4,12.4,12.4s12.4-5.6,12.4-12.4
		S131.8,80.1,125,80.1z"/>
	<path class="st0" d="M88.4,124.6C74.8,106.5,76.8,76.8,92.6,61c8.5-8.5,19.9-13.2,32-13.2c12.1,0,23.4,4.7,32,13.2
		c15.8,15.8,17.8,45.6,4.2,63.7l-36.2,52.2L88.4,124.6z M124.6,51.5c-11.1,0-21.5,4.3-29.3,12.1c-14.6,14.6-16.4,42-3.8,58.7
		l33.1,47.9l33.1-47.8c12.5-16.7,10.8-44.2-3.8-58.8C146,55.8,135.6,51.5,124.6,51.5z"/>
	<path class="st0" d="M125,189.7c-46.6,0-71-9.9-71-19.8c0-8.7,17.3-16.8,42.2-19.7c0.1,0,0.2,0,0.2,0c0.9,0,1.7,0.7,1.9,1.7
		c0.1,0.5-0.1,1-0.4,1.4c-0.3,0.4-0.8,0.6-1.3,0.7c-24,2.8-38.9,10.5-38.9,16c0,7.6,27.6,16,67.2,16c39.6,0,67.2-8.4,67.2-16
		c0-5.5-14.9-13.2-38.9-16c-1-0.1-1.8-1.1-1.6-2.1c0.1-0.9,0.9-1.7,1.9-1.7c0.1,0,0.2,0,0.2,0c24.8,2.9,42.2,11,42.2,19.7
		C196,179.8,171.6,189.7,125,189.7z"/>
</g>
</svg>
