<?xml version="1.0" encoding="utf-8"?>
<!-- Generator: Adobe Illustrator 26.2.1, SVG Export Plug-In . SVG Version: 6.00 Build 0)  -->
<svg version="1.1" id="Layer_5" xmlns="http://www.w3.org/2000/svg" xmlns:xlink="http://www.w3.org/1999/xlink" x="0px" y="0px"
	 viewBox="0 0 250 250" style="enable-background:new 0 0 250 250;" xml:space="preserve">
<style type="text/css">
	.st0{fill:#FFFFFF;}
</style>
<g>
	<path class="st0" d="M61.7,191.4c-1.1,0-2-0.9-2-2v-25.1c0-0.5,0.2-1,0.6-1.4l46.6-46.6l-0.3-0.9c-2-5.3-3-10.8-3-16.5
		c0-25.6,20.9-46.5,46.5-46.5s46.5,20.9,46.5,46.5c0,25.6-20.9,46.5-46.5,46.5c-5.7,0-11.2-1-16.5-3l-0.9-0.4l-11.8,11.8
		c-0.4,0.4-0.9,0.6-1.4,0.6h-9.1v9.1c0,1.1-0.9,2-2,2h-5v5c0,1.1-0.9,2-2,2H91.4v10.1c0,0.5-0.2,1-0.6,1.4l-7,7
		c-0.4,0.4-0.9,0.6-1.4,0.6H61.7z M105.8,134.3c0.4,0,0.8,0.2,1.2,0.5c0.3,0.3,0.5,0.7,0.5,1.1s-0.2,0.8-0.5,1.1l-43.2,43.2v7.1
		h17.9l5.8-5.8v-11.2c0-1.1,0.9-2,2-2h10.1v-5c0-1.1,0.9-2,2-2h5v-9.1c0-1.1,0.9-2,2-2h10.2l12.2-12.2c0.4-0.4,0.9-0.6,1.4-0.6
		c0.3,0,0.5,0.1,0.8,0.2c5.4,2.4,11.1,3.6,17.1,3.6c23.5,0,42.5-19.1,42.5-42.5c0-23.5-19.1-42.5-42.5-42.5s-42.5,19.1-42.5,42.5
		c0,5.9,1.2,11.7,3.6,17.1c0.3,0.7,0.2,1.6-0.4,2.2l-47,47v10.6l40.9-40.9C104.9,134.5,105.3,134.3,105.8,134.3z"/>
	<path class="st0" d="M164.7,95.8c-6.4,0-11.6-5.2-11.6-11.6s5.2-11.6,11.6-11.6s11.6,5.2,11.6,11.6S171.1,95.8,164.7,95.8z
		 M164.7,76.6c-4.2,0-7.6,3.4-7.6,7.6c0,4.2,3.4,7.6,7.6,7.6s7.6-3.4,7.6-7.6C172.3,80,168.9,76.6,164.7,76.6z"/>
</g>
</svg>
