<?xml version="1.0" encoding="utf-8"?>
<!-- Generator: Adobe Illustrator 26.2.1, SVG Export Plug-In . SVG Version: 6.00 Build 0)  -->
<svg version="1.1" id="Layer_5" xmlns="http://www.w3.org/2000/svg" xmlns:xlink="http://www.w3.org/1999/xlink" x="0px" y="0px"
	 viewBox="0 0 250 250" style="enable-background:new 0 0 250 250;" xml:space="preserve">
<style type="text/css">
	.st0{fill:#FFFFFF;}
</style>
<path class="st0" d="M188,185.6v-38.8h-25.2V184c0,0.9-0.7,1.6-1.6,1.6h-15.5c-0.9,0-1.6-0.7-1.6-1.6v-42.3h-17.4v40.7H137v3.3H113
	v-3.3h10.3v-40.7h-17.4V184c0,0.9-0.7,1.6-1.6,1.6H88.8c-0.9,0-1.6-0.7-1.6-1.6v-37.2H62v38.8h-3.3v-38.9l-0.8-0.2
	c-5.5-1.1-9.6-6.1-9.6-11.7V96.1c0-5.9,4.2-10.8,10.1-11.8l1.9-0.3L59,82.6c-3.5-3.3-5.4-7.7-5.4-12.4c0-9.4,7.7-17.1,17.1-17.1
	s17.1,7.7,17.1,17.1c0,5.8-2.9,11.2-7.8,14.4l-1.2,0.8l1.2,0.8c3.3,2.2,5.2,5.9,5.2,9.9v19.1h26.8c0.9,0,1.6,0.7,1.6,1.6V128h22.6
	v-11.3c0-0.9,0.7-1.6,1.6-1.6h26.8V96.1c0-4,2-7.7,5.2-9.9l1.2-0.8l-1.2-0.8c-4.9-3.2-7.8-8.6-7.8-14.4c0-9.4,7.7-17.1,17.1-17.1
	s17.1,7.7,17.1,17.1c0,4.7-1.9,9.2-5.4,12.4l-1.4,1.3l1.9,0.3c5.8,0.9,10.1,5.9,10.1,11.8v38.8c0,5.7-4,10.6-9.6,11.7l-0.8,0.2v38.9
	H188z M156,131.3c-4.8,0-8.7,3.9-8.7,8.7v42.3h12.3v-37.2c0-0.9,0.7-1.6,1.6-1.6h28.4c4.8,0,8.7-3.9,8.7-8.7V96.1
	c0-4.8-3.9-8.7-8.7-8.7h-12.9c-4.8,0-8.7,3.9-8.7,8.7v20.7c0,0.9-0.7,1.6-1.6,1.6h-26.8v9.7h38.1v-23.3h3.3v24.9
	c0,0.9-0.7,1.6-1.6,1.6H156z M60.4,87.3c-4.8,0-8.7,3.9-8.7,8.7v38.8c0,4.8,3.9,8.7,8.7,8.7h28.4c0.9,0,1.6,0.7,1.6,1.6v37.2h12.3
	V140c0-4.8-3.9-8.7-8.7-8.7H70.7c-0.9,0-1.6-0.7-1.6-1.6v-24.9h3.3V128h38.1v-9.7H83.6c-0.9,0-1.6-0.7-1.6-1.6V96.1
	c0-4.8-3.9-8.7-8.7-8.7H60.4z M103.5,132.8c1,1.4,1.8,3,2.1,4.8l0.2,0.8h38.3l0.2-0.8c0.4-1.8,1.1-3.4,2.1-4.8l1.1-1.5h-45.2
	L103.5,132.8z M179.3,56.3c-7.7,0-13.9,6.2-13.9,13.9c0,7.7,6.2,13.9,13.9,13.9s13.9-6.2,13.9-13.9
	C193.2,62.5,186.9,56.3,179.3,56.3z M70.7,56.3c-7.7,0-13.9,6.2-13.9,13.9c0,7.7,6.2,13.9,13.9,13.9s13.9-6.2,13.9-13.9
	C84.6,62.5,78.4,56.3,70.7,56.3z"/>
</svg>
