<?xml version="1.0" encoding="utf-8"?>
<!-- Generator: Adobe Illustrator 26.2.1, SVG Export Plug-In . SVG Version: 6.00 Build 0)  -->
<svg version="1.1" id="Layer_5" xmlns="http://www.w3.org/2000/svg" xmlns:xlink="http://www.w3.org/1999/xlink" x="0px" y="0px"
	 viewBox="0 0 250 250" style="enable-background:new 0 0 250 250;" xml:space="preserve">
<style type="text/css">
	.st0{fill:#FFFFFF;}
</style>
<g>
	<path class="st0" d="M131.5,182.7c-5,0-9.9-0.8-14.6-2.4l-17.2-5.7l-0.9,1.9c-1.8,3.7-5.6,6.1-9.7,6.1H62.7c-1.1,0-2-0.9-2-2v-79.3
		c0-1.1,0.9-2,2-2h26.4c4.5,0,8.4,2.7,10,6.8l0.8,2l2.1-0.5c12.5-3,23.4-19,26.9-32.8l2.4-9.6c0.2-0.9,1-1.5,1.9-1.5h4.4
		c8.4,0,15.2,6.8,15.2,15.2v4.4c0,4.4-1.1,14.3-3.5,21.6l-1.1,3.2h29c5.9,0,10.8,4.8,10.8,10.8c0,2.7-1,5.2-2.8,7.2l-1.5,1.6
		l1.5,1.6c1.8,2,2.8,4.5,2.8,7.2c0,2.7-1,5.2-2.8,7.2l-1.5,1.6l1.5,1.6c1.8,2,2.8,4.5,2.8,7.2c0,4.8-3.3,9.1-7.9,10.4l-2.6,0.7
		l1,2.5c0.5,1.3,0.8,2.6,0.8,4c0,5.9-4.8,10.8-10.8,10.8H131.5z M132.7,75.9c-2,8.2-6.7,17.1-12.4,23.8c-5.7,6.7-12,10.8-18.4,12
		l-2,0.4v58.3l18.3,6.1c4.3,1.4,8.8,2.2,13.3,2.2h36.9c3.8,0,6.8-3.1,6.8-6.8c0-3.8-3.1-6.8-6.8-6.8c-1.1,0-2-0.9-2-2s0.9-2,2-2h8.8
		c3.8,0,6.8-3.1,6.8-6.8c0-3.8-3.1-6.8-6.8-6.8h-8.8c-1.1,0-2-0.9-2-2s0.9-2,2-2h8.8c3.8,0,6.8-3.1,6.8-6.8c0-3.8-3.1-6.8-6.8-6.8
		h-8.8c-1.1,0-2-0.9-2-2c0-1.1,0.9-2,2-2h8.8c3.8,0,6.8-3.1,6.8-6.8c0-3.8-3.1-6.8-6.8-6.8h-44.1c-1.1,0-2-0.9-2-2s0.9-2,2-2h10.6
		l0.7-1.4c2.5-5.4,4.4-17,4.4-23.4v-4.4c0-6.2-5-11.2-11.2-11.2h-2.9L132.7,75.9z M64.7,178.7h24.5c3.8,0,6.8-3.1,6.8-6.8v-61.7
		c0-3.8-3.1-6.8-6.8-6.8H64.7V178.7z"/>
	<circle class="st0" cx="80.3" cy="163.1" r="2"/>
	<path class="st0" d="M142,50.2c-1.1,0-2-0.9-2-2v-9.1c0-1.1,0.9-2,2-2c1.1,0,2,0.9,2,2v9.1C144,49.3,143.1,50.2,142,50.2z"/>
	<path class="st0" d="M120.2,59.2c-0.5,0-1-0.2-1.4-0.6l-6.2-6.2c-0.4-0.4-0.6-0.9-0.6-1.4s0.2-1,0.6-1.4c0.4-0.4,0.9-0.6,1.4-0.6
		s1,0.2,1.4,0.6l6.2,6.2c0.4,0.4,0.6,0.9,0.6,1.4s-0.2,1-0.6,1.4S120.7,59.2,120.2,59.2z"/>
	<path class="st0" d="M163.8,59.2c-0.5,0-1-0.2-1.4-0.6c-0.8-0.8-0.8-2,0-2.8l6.2-6.2c0.4-0.4,0.9-0.6,1.4-0.6s1,0.2,1.4,0.6
		c0.8,0.8,0.8,2,0,2.8l-6.2,6.2C164.8,59,164.3,59.2,163.8,59.2z"/>
</g>
</svg>
