<?xml version="1.0" encoding="utf-8"?>
<!-- Generator: Adobe Illustrator 26.2.1, SVG Export Plug-In . SVG Version: 6.00 Build 0)  -->
<svg version="1.1" id="Isolation_Mode" xmlns="http://www.w3.org/2000/svg" xmlns:xlink="http://www.w3.org/1999/xlink" x="0px"
	 y="0px" viewBox="0 0 33.1 33.1" style="enable-background:new 0 0 33.1 33.1;" xml:space="preserve">
<style type="text/css">
	.st0{fill:#FFFFFF;}
</style>
<g>
	<path class="st0" d="M16.6,0C7.4,0,0,7.4,0,16.6c0,9.1,7.4,16.6,16.6,16.6c9.1,0,16.6-7.4,16.6-16.6C33.1,7.4,25.7,0,16.6,0L16.6,0
		z M22.3,17.4L14,22.6c-0.2,0.1-0.4,0.2-0.5,0.2c-0.2,0-0.3,0-0.5-0.1c-0.3-0.2-0.5-0.5-0.5-0.9V11.4c0-0.4,0.2-0.7,0.5-0.9
		c0.3-0.2,0.7-0.2,1.1,0l8.3,5.2c0.3,0.2,0.5,0.5,0.5,0.9C22.8,16.9,22.6,17.2,22.3,17.4L22.3,17.4z M22.3,17.4"/>
</g>
</svg>
