<?xml version="1.0" encoding="utf-8"?>
<!-- Generator: Adobe Illustrator 26.2.1, SVG Export Plug-In . SVG Version: 6.00 Build 0)  -->
<svg version="1.1" id="Layer_1" xmlns="http://www.w3.org/2000/svg" xmlns:xlink="http://www.w3.org/1999/xlink" x="0px" y="0px"
	 viewBox="0 0 45 45" style="enable-background:new 0 0 45 45;" xml:space="preserve">
<style type="text/css">
	.st0{fill:#79C843;}
</style>
<path class="st0" d="M40.1,0H4.8C2.2,0,0,2.2,0,4.8c0,0,0,0,0,0v35.3C0,42.8,2.1,45,4.8,45c0,0,0,0,0.1,0h35.3
	c2.7,0,4.8-2.1,4.9-4.8c0,0,0-0.1,0-0.1V4.8C45,2.2,42.8,0,40.1,0C40.2,0,40.1,0,40.1,0z M35.2,15.9c0,0.3,0,0.6,0,0.9
	c0,8.7-6.6,18.7-18.7,18.7c-3.6,0-7.1-1-10.1-3c0.5,0.1,1.1,0.1,1.6,0.1c3,0,5.8-1,8.2-2.8c-2.8-0.1-5.3-1.9-6.2-4.6
	c1,0.2,2,0.1,3-0.1c-3.1-0.6-5.3-3.3-5.3-6.5v-0.1c0.9,0.5,1.9,0.8,3,0.8c-2.9-1.9-3.8-5.8-2-8.8c3.3,4.1,8.3,6.6,13.6,6.9
	c-0.8-3.5,1.4-7.1,4.9-7.9c2.3-0.5,4.7,0.2,6.3,1.9c1.5-0.3,2.9-0.8,4.2-1.6c-0.5,1.5-1.5,2.8-2.9,3.6c1.3-0.1,2.6-0.5,3.8-1
	C37.7,13.9,36.5,15,35.2,15.9z"/>
</svg>
